<svg width="232" height="104" viewBox="0 0 232 104" fill="none" xmlns="http://www.w3.org/2000/svg">
<g clip-path="url(#clip0)">
<path d="M15.153 60.3953C15.153 60.5308 15.0931 60.5982 14.9736 60.5982C14.7857 60.5982 14.615 60.2701 14.4616 59.614C14.1545 58.3185 13.728 57.4352 13.1818 56.9642C12.6357 56.4931 11.7657 56.2577 10.5716 56.2578H9.36832V71.7806C9.38581 72.2065 9.50645 72.4788 9.73025 72.5975C9.95405 72.7162 10.5578 72.8184 11.5415 72.9041C11.731 72.9209 11.8254 72.9978 11.8254 73.1338C11.8254 73.3041 11.689 73.3893 11.4161 73.3893C11.365 73.3893 11.2367 73.3803 11.032 73.3633C10.7761 73.3463 10.5628 73.3378 10.3922 73.3378L7.75599 73.2615L3.40562 73.3893C3.16613 73.3893 3.04683 73.3204 3.04683 73.1837C3.04683 73.0822 3.08069 73.0222 3.14931 73.0048C3.42965 72.9731 3.71147 72.9561 3.99359 72.954C4.93214 72.9196 5.43557 72.6976 5.50389 72.2881C5.53798 72.0662 5.55502 70.3335 5.55502 67.0898V56.2578H4.88856C3.52335 56.2578 2.52919 56.5077 1.90609 57.0073C1.28299 57.507 0.877923 58.3914 0.690902 59.6603C0.571304 60.4047 0.417845 60.777 0.230525 60.7771C0.0768416 60.7771 0 60.6749 0 60.4705C0 60.3349 0.0341601 59.8668 0.10248 59.0662C0.239121 57.3987 0.324409 56.2585 0.358345 55.6456H2.61067C2.66225 55.6456 3.2553 55.6582 4.38984 55.6834C5.52437 55.7086 6.97053 55.7215 8.72832 55.7219C9.70125 55.7219 10.5716 55.7156 11.3394 55.7029C12.1073 55.6902 12.8068 55.6837 13.4382 55.6834C14.0012 55.6834 14.4278 55.6708 14.7182 55.6456C14.7691 56.7465 14.8971 58.152 15.1021 59.8621C15.1361 60.1499 15.1531 60.3276 15.153 60.3953ZM40.7753 73.313C40.7753 73.4152 40.6988 73.466 40.5452 73.466C40.434 73.4663 40.3228 73.4601 40.2122 73.4474C39.6142 73.3747 37.942 73.3383 35.1954 73.3383H33.2243C32.6952 73.3553 32.4307 73.2833 32.4309 73.1224C32.4309 72.9784 32.6441 72.8973 33.0707 72.8791C33.4099 72.8702 33.7444 72.7967 34.056 72.6626C34.3381 72.5355 34.4789 72.3869 34.4785 72.2168C34.4955 72.1149 34.5127 71.835 34.5301 71.3771V64.1984H28.4377V72.0873C28.4548 72.53 28.7961 72.7939 29.4616 72.8791C29.9907 72.9468 30.2979 72.9934 30.3831 73.0191C30.4208 73.0269 30.4545 73.048 30.478 73.0785C30.5015 73.109 30.5133 73.1469 30.5111 73.1853C30.5111 73.2875 30.4255 73.3383 30.255 73.3383C30.033 73.3383 29.4443 73.3213 28.4889 73.2875C27.5334 73.2536 27.1325 73.2365 27.286 73.2361C27.1835 73.2361 26.6586 73.2532 25.7116 73.2875C24.7645 73.3218 23.8645 73.3387 23.0114 73.3383H22.7556C22.4482 73.3383 22.2945 73.2616 22.2945 73.1083C22.2945 72.9728 22.4136 72.9046 22.6533 72.9046C23.4552 72.9046 24.0098 72.8025 24.317 72.5984C24.4535 72.514 24.5217 72.0636 24.5215 71.2474V57.1749C24.5215 56.6309 24.3731 56.3038 24.0762 56.1936C23.6082 56.061 23.1218 56.0051 22.6358 56.0281C22.4081 56.0281 22.2944 55.96 22.2947 55.8237C22.2947 55.7394 22.3889 55.6879 22.5773 55.6709H30.1519C30.3911 55.6709 30.5107 55.7561 30.5107 55.9263C30.5107 56.0456 30.4653 56.118 30.3745 56.1433C30.0886 56.1856 29.7999 56.2069 29.5108 56.2071C29.0253 56.2241 28.7252 56.3304 28.6104 56.5262C28.4688 56.8606 28.4094 57.2239 28.4373 57.5858V63.6121H29.0443C30.729 63.6806 32.5574 63.6637 34.5296 63.5614V57.847C34.5296 56.6857 34.1097 56.105 33.2698 56.1048C32.7098 56.1048 32.43 56.0287 32.4304 55.8765C32.4304 55.7394 32.5403 55.6709 32.7614 55.6709H40.5203C40.6899 55.6709 40.7745 55.7218 40.7744 55.8237C40.7744 55.943 40.4587 56.028 39.8274 56.0789C39.1961 56.1297 38.8037 56.2614 38.6501 56.4739C38.4967 56.6868 38.4199 57.2179 38.4196 58.0671V70.6106C38.4196 71.7157 38.5604 72.3827 38.8421 72.6118C39.1237 72.8408 39.6059 72.9725 40.2885 73.0068C40.6129 73.0242 40.7751 73.1263 40.7753 73.313ZM63.6073 68.846C63.6073 68.8805 63.5988 69.672 63.5818 71.2205C63.5647 72.0374 63.5519 72.6245 63.5432 72.982C63.5345 73.3394 63.5304 73.5096 63.5309 73.4926C59.0258 73.2886 55.0838 73.229 51.7048 73.3137H49.5552C49.2475 73.3137 49.0938 73.2493 49.0941 73.1206C49.0941 73.0242 49.1327 72.9681 49.2092 72.952C49.2857 72.9359 49.5456 72.9117 49.99 72.8797C50.7919 72.8283 51.227 72.5989 51.2953 72.1915C51.3313 71.9465 51.3485 71.6992 51.3469 71.4516V58.5259C51.3469 57.5065 51.3382 56.9457 51.3209 56.8434C51.3256 56.7364 51.3049 56.6299 51.2604 56.5325C51.2159 56.435 51.1488 56.3495 51.0648 56.2829C50.9114 56.1807 50.5958 56.1297 50.1181 56.1297C49.589 56.1297 49.3245 56.0532 49.3247 55.9004C49.3247 55.7304 49.5593 55.6455 50.0286 55.6456C50.4979 55.6458 51.1506 55.6371 51.9867 55.6197C55.1261 55.5517 57.6944 55.5347 59.6913 55.5687H61.4315C61.8072 55.5687 62.268 55.5431 62.814 55.492L63.0443 58.2749C63.1292 59.1599 63.1719 59.7046 63.1723 59.909C63.1772 59.9438 63.174 59.9792 63.1628 60.0125C63.1516 60.0458 63.1328 60.076 63.1078 60.1008C63.0829 60.1256 63.0525 60.1442 63.0191 60.1552C62.9857 60.1662 62.9501 60.1693 62.9153 60.1642C62.7444 60.1642 62.6331 59.943 62.5814 59.5006C62.4273 58.3263 61.9522 57.471 61.1561 56.9347C60.36 56.3983 59.1833 56.1299 57.626 56.1294C57.1461 56.1294 56.3243 56.155 55.1604 56.2062V63.7378C57.0466 63.7548 58.2343 63.6229 58.7235 63.3419C59.2126 63.061 59.5427 62.3335 59.7138 61.1594C59.7993 60.5295 59.9279 60.2145 60.0997 60.2144C60.2537 60.2144 60.3311 60.368 60.3311 60.674C60.3311 60.98 60.3058 61.6105 60.2542 62.5636C60.2371 62.8873 60.2286 63.3213 60.2286 63.8656C60.2286 65.3296 60.2457 66.4359 60.2798 67.1846C60.2987 67.3114 60.3074 67.4394 60.3058 67.5675C60.3058 67.772 60.2284 67.8741 60.0737 67.8738C60.028 67.8805 59.9813 67.8732 59.9399 67.8527C59.8985 67.8321 59.8644 67.7995 59.8422 67.759C59.7688 67.4869 59.7171 67.2094 59.6877 66.9292C59.5163 65.7214 59.2805 64.9683 58.9805 64.6701C58.6804 64.3719 57.9904 64.2228 56.9102 64.2228H55.1611V72.8012H56.8044C58.6872 72.7672 59.834 72.7247 60.2448 72.6735C60.7768 72.5985 61.2855 72.4068 61.7342 72.1121C62.1181 71.8271 62.4229 71.4491 62.6195 71.0139C62.8617 70.3084 63.0379 69.5821 63.1461 68.8443C63.197 68.589 63.2825 68.4613 63.4024 68.4613C63.539 68.4618 63.6073 68.59 63.6073 68.846ZM97.6254 72.3181C97.6254 73.2717 97.0027 73.7483 95.7572 73.7478C94.1875 73.7478 92.9332 73.253 91.9942 72.2633C91.3154 71.6049 90.8743 70.7409 90.74 69.8061L90.4832 67.7053C90.3128 66.3745 90.0015 65.4443 89.5494 64.9148C89.0974 64.3853 88.3677 64.1293 87.3606 64.1469V69.9593C87.3606 71.308 87.3691 72.0335 87.3861 72.1358C87.3761 72.2608 87.4052 72.3859 87.4695 72.4937C87.5338 72.6015 87.63 72.6868 87.7449 72.7377C87.9841 72.849 88.4364 72.9045 89.1016 72.9043C89.5111 72.9043 89.7158 72.9809 89.7156 73.1341C89.7156 73.2703 89.6136 73.338 89.4086 73.338H81.678C81.4385 73.338 81.3192 73.2777 81.3192 73.1555C81.3192 73.0185 81.669 72.9348 82.3686 72.9043C82.9485 72.8703 83.2898 72.7337 83.3926 72.4944C83.4656 72.1408 83.4914 71.7791 83.4695 71.4187V58.2315C83.4851 57.7061 83.4679 57.1802 83.4179 56.6569C83.3972 56.5726 83.356 56.4947 83.2981 56.43C83.2402 56.3653 83.1672 56.3158 83.0856 56.2858C82.7144 56.1638 82.3238 56.1117 81.9336 56.1323C81.5578 56.1323 81.37 56.0553 81.3703 55.9013C81.3703 55.782 81.4471 55.7095 81.6008 55.6839C82.0093 55.6483 82.4195 55.6356 82.8295 55.6456H87.9743C90.363 55.6456 91.9925 55.8328 92.8629 56.2071C93.5267 56.4814 94.0959 56.9427 94.501 57.5345C94.9044 58.1109 95.1191 58.7977 95.1155 59.5006C95.1155 61.1348 94.2623 62.3432 92.5559 63.1259C91.8045 63.4666 90.6953 63.7219 89.2283 63.8917L89.2023 64.0449C91.0621 64.1642 92.4102 64.6536 93.2468 65.5129C94.0834 66.3722 94.5868 67.7639 94.7571 69.6877C94.8934 71.2194 95.1068 72.1768 95.3971 72.5599C95.6874 72.943 95.9864 73.1344 96.2941 73.1343C96.5499 73.1343 96.678 73.0672 96.678 72.9298C96.678 72.8622 96.5799 72.7686 96.3836 72.6491C96.2922 72.5992 96.2163 72.5252 96.1644 72.4351C96.1124 72.345 96.0864 72.2424 96.0891 72.1385C96.0891 71.6789 96.3451 71.4491 96.8569 71.4489C97.3688 71.4488 97.6246 71.7381 97.6243 72.317L97.6254 72.3181ZM91.1499 59.425C91.1499 57.2295 90.2795 56.1316 88.5388 56.1315C87.9756 56.1315 87.6258 56.3187 87.4893 56.6933C87.4038 56.9319 87.3611 57.8595 87.3613 59.4762V63.7144C88.6918 63.7314 89.656 63.3994 90.254 62.7186C90.852 62.0377 91.1503 60.9395 91.1488 59.4239L91.1499 59.425ZM121.737 55.8382C121.737 55.9668 121.447 56.039 120.867 56.055C120.15 56.072 119.715 56.1917 119.561 56.4142C119.492 56.5491 119.457 56.6985 119.459 56.8499V67.6962C119.459 71.7312 117.53 73.7484 113.673 73.7478C111.693 73.7478 110.157 73.1439 109.066 71.9361C108.247 71.0339 107.837 69.4341 107.837 67.1365V57.3306C107.837 56.7859 107.751 56.4538 107.581 56.3348C107.411 56.2158 106.873 56.1223 105.968 56.0538C105.781 56.0371 105.687 55.9686 105.687 55.8494C105.687 55.6964 105.841 55.6198 106.147 55.6197H108.323C109.824 55.6371 110.934 55.6371 111.65 55.6197H113.314C113.604 55.6197 113.749 55.7054 113.749 55.8753C113.749 56.029 113.484 56.1057 112.956 56.1057C112.205 56.1057 111.804 56.242 111.753 56.5146C111.719 56.6916 111.702 56.8713 111.702 57.0514V66.6145C111.702 67.9953 111.727 68.8731 111.778 69.248C111.898 70.3559 112.213 71.1572 112.725 71.652C113.057 71.9629 113.447 72.2045 113.873 72.3625C114.3 72.5205 114.754 72.5917 115.208 72.572C116.369 72.572 117.222 72.1975 117.768 71.4485C118.433 70.5468 118.766 68.9298 118.766 66.5975V57.1514C118.766 56.7093 118.64 56.4201 118.387 56.2838C118.075 56.1553 117.737 56.1027 117.4 56.1303C116.792 56.1138 116.488 56.0117 116.489 55.8241C116.489 55.688 116.608 55.6198 116.848 55.6197C117.104 55.6197 117.479 55.6324 117.974 55.6579C118.469 55.6834 118.844 55.6963 119.1 55.6964C119.117 55.6964 119.262 55.6709 119.535 55.6197H120.943C121.472 55.6197 121.736 55.6922 121.736 55.8371L121.737 55.8382ZM141.829 68.2846C141.849 69.0059 141.711 69.7228 141.426 70.386C141.141 71.0492 140.715 71.643 140.179 72.1266C139.078 73.1394 137.674 73.6459 135.968 73.646C134.927 73.646 133.493 73.297 131.668 72.599C131.554 72.5527 131.432 72.5268 131.309 72.5225C131.019 72.5225 130.797 72.8289 130.644 73.4416C130.593 73.6286 130.524 73.7223 130.439 73.7223C130.302 73.7223 130.234 73.603 130.234 73.3644C130.252 72.9707 130.294 72.5785 130.362 72.1902C130.435 71.6573 130.469 71.1198 130.465 70.582C130.465 70.0884 130.456 69.6968 130.439 69.407C130.405 68.8286 130.388 68.4883 130.388 68.386C130.388 68.114 130.473 67.9775 130.644 67.9775C130.815 67.9775 130.968 68.3439 131.104 69.0755C131.344 70.3351 131.881 71.3138 132.717 72.0117C133.523 72.7231 134.559 73.1218 135.635 73.135C136.495 73.1581 137.33 72.8468 137.964 72.2669C138.266 72.003 138.508 71.6769 138.671 71.311C138.835 70.9451 138.917 70.5482 138.912 70.1476C138.927 69.8362 138.881 69.5248 138.775 69.2312C138.67 68.9377 138.507 68.6678 138.297 68.4372C137.99 68.1306 137 67.5267 135.328 66.6254C133.468 65.6382 132.205 64.6509 131.539 63.6636C130.91 62.7104 130.588 61.5877 130.618 60.4467C130.601 59.764 130.731 59.0855 131.001 58.4576C131.27 57.8297 131.672 57.2672 132.179 56.8085C133.22 55.8472 134.534 55.3663 136.121 55.3658C137.066 55.3858 137.997 55.5942 138.86 55.9787C139.077 56.0857 139.311 56.1549 139.552 56.1831C139.807 56.1831 139.978 55.9619 140.063 55.5195C140.097 55.3658 140.174 55.2896 140.293 55.2896C140.464 55.2896 140.549 55.4001 140.549 55.6213C140.549 55.707 140.532 55.9456 140.498 56.337C140.464 56.7289 140.447 57.0528 140.447 57.3073C140.441 58.0574 140.475 58.8074 140.549 59.5539C140.569 59.6202 140.577 59.6892 140.575 59.7583C140.575 59.9113 140.507 59.9878 140.37 59.988C140.217 59.988 140.063 59.7156 139.909 59.1707C139.737 58.5878 139.464 58.0393 139.104 57.5497C138.796 57.089 138.4 56.694 137.937 56.3878C137.394 56.0733 136.774 55.9144 136.146 55.9286C135.19 55.9286 134.431 56.1583 133.868 56.6177C133.589 56.8455 133.368 57.1349 133.222 57.4629C133.075 57.7908 133.007 58.1483 133.023 58.5071C133.023 58.8531 133.094 59.1955 133.23 59.5136C133.366 59.8317 133.566 60.119 133.816 60.3582C134.345 60.8941 135.36 61.5792 136.863 62.4135C138.705 63.4348 139.926 64.2518 140.523 64.8645C140.957 65.3194 141.296 65.856 141.521 66.443C141.745 67.03 141.85 67.6557 141.829 68.2835L141.829 68.2846ZM162.716 68.2846C162.735 69.0059 162.598 69.7228 162.313 70.386C162.028 71.0491 161.602 71.643 161.065 72.1266C159.964 73.1394 158.561 73.6459 156.855 73.646C155.814 73.646 154.38 73.297 152.554 72.599C152.44 72.5527 152.319 72.5268 152.196 72.5225C151.905 72.5225 151.683 72.8289 151.53 73.4416C151.479 73.6286 151.411 73.7222 151.325 73.7223C151.189 73.7223 151.121 73.603 151.121 73.3644C151.138 72.9707 151.181 72.5785 151.249 72.1902C151.322 71.6573 151.356 71.1198 151.351 70.582C151.351 70.0884 151.342 69.6968 151.325 69.407C151.291 68.8286 151.274 68.4883 151.274 68.386C151.274 68.114 151.36 67.9778 151.53 67.9775C151.701 67.9772 151.854 68.3432 151.991 69.0755C152.229 70.3351 152.767 71.3138 153.603 72.0117C154.41 72.7231 155.445 73.1218 156.522 73.135C157.382 73.1581 158.217 72.8468 158.851 72.2669C159.153 72.003 159.394 71.6768 159.558 71.311C159.721 70.9451 159.803 70.5482 159.798 70.1476C159.814 69.8362 159.767 69.5248 159.662 69.2312C159.557 68.9377 159.394 68.6678 159.184 68.4372C158.876 68.1306 157.886 67.5267 156.215 66.6254C154.354 65.6382 153.091 64.6509 152.425 63.6636C151.796 62.7104 151.474 61.5877 151.504 60.4467C151.486 59.764 151.617 59.0855 151.886 58.4576C152.155 57.8297 152.558 57.2672 153.065 56.8085C154.106 55.8472 155.42 55.3663 157.007 55.3658C157.952 55.3858 158.883 55.5942 159.746 55.9787C159.963 56.0858 160.196 56.1549 160.437 56.1831C160.693 56.1831 160.863 55.9624 160.949 55.5195C160.983 55.3658 161.059 55.2896 161.179 55.2896C161.349 55.2896 161.435 55.4001 161.435 55.6213C161.435 55.707 161.418 55.9456 161.384 56.337C161.35 56.7284 161.333 57.0519 161.333 57.3073C161.326 58.0574 161.36 58.8074 161.435 59.5539C161.454 59.6202 161.463 59.6892 161.461 59.7583C161.461 59.9113 161.392 59.988 161.256 59.988C161.102 59.988 160.949 59.7156 160.795 59.1707C160.623 58.5878 160.35 58.0392 159.989 57.5497C159.682 57.0892 159.286 56.6942 158.824 56.3878C158.281 56.0733 157.661 55.9144 157.032 55.9286C156.077 55.9286 155.317 56.1583 154.754 56.6177C154.476 56.8455 154.255 57.1349 154.108 57.4629C153.962 57.7908 153.894 58.1484 153.91 58.5071C153.91 58.8531 153.98 59.1955 154.117 59.5136C154.253 59.8318 154.452 60.1191 154.703 60.3582C155.232 60.8941 156.247 61.5792 157.749 62.4135C159.592 63.4348 160.812 64.2518 161.409 64.8645C161.844 65.3194 162.183 65.856 162.407 66.443C162.632 67.03 162.737 67.6556 162.716 68.2835L162.716 68.2846ZM185.805 68.999C185.805 69.3228 185.796 69.5952 185.779 69.8163C185.716 70.4181 185.691 71.0232 185.702 71.6281L185.728 73.4398C183.543 73.3545 179.593 73.312 173.876 73.3123H172.801C172.05 73.3123 171.675 73.24 171.675 73.0954C171.675 72.9507 171.795 72.8784 172.034 72.8784C172.886 72.8614 173.432 72.7421 173.672 72.5205C173.825 72.3847 173.902 71.9768 173.902 71.2968V57.4815C173.902 56.9043 173.85 56.5475 173.747 56.411C173.628 56.2785 173.478 56.1767 173.311 56.1144C173.144 56.0521 172.965 56.0311 172.788 56.0532H172.14C171.949 56.0532 171.855 55.9894 171.855 55.8617C171.855 55.734 171.974 55.6702 172.213 55.6702H179.406C179.576 55.6702 179.662 55.7387 179.662 55.8742C179.662 56.028 179.44 56.1046 178.996 56.1042C178.365 56.1042 177.994 56.1808 177.883 56.3341C177.772 56.4874 177.717 57.1597 177.717 58.3512V64.4272C177.717 65.6699 177.751 68.4529 177.819 72.7762C178.143 72.7932 178.51 72.8017 178.92 72.8017C180.712 72.8017 181.949 72.7335 182.631 72.5972C183.706 72.3763 184.44 71.832 184.833 70.9644C185.104 70.2827 185.293 69.5713 185.396 68.8452C185.447 68.5729 185.524 68.4367 185.626 68.4367C185.745 68.4366 185.804 68.6236 185.805 68.9979L185.805 68.999ZM208.022 68.846C208.022 68.8805 208.014 69.672 207.997 71.2205C207.98 72.0374 207.967 72.6245 207.958 72.982C207.95 73.3394 207.946 73.5096 207.946 73.4926C203.441 73.2886 199.499 73.229 196.12 73.3137H193.97C193.663 73.3137 193.509 73.2493 193.509 73.1206C193.509 73.0242 193.548 72.9681 193.624 72.952C193.701 72.9359 193.961 72.9117 194.405 72.8797C195.207 72.8283 195.642 72.5989 195.71 72.1915C195.746 71.9465 195.764 71.6992 195.762 71.4516V58.5259C195.762 57.5065 195.753 56.9457 195.736 56.8434C195.741 56.7365 195.72 56.6299 195.675 56.5325C195.631 56.4351 195.564 56.3496 195.48 56.2829C195.326 56.1807 195.011 56.1297 194.533 56.1297C194.004 56.1297 193.74 56.0532 193.74 55.9004C193.74 55.7304 193.974 55.6455 194.444 55.6456C194.913 55.6458 195.566 55.6371 196.402 55.6197C199.541 55.5517 202.11 55.5347 204.106 55.5687H205.847C206.222 55.5687 206.683 55.5431 207.229 55.492L207.459 58.2749C207.544 59.1599 207.587 59.7046 207.587 59.909C207.592 59.9438 207.589 59.9792 207.578 60.0125C207.567 60.0458 207.548 60.076 207.523 60.1008C207.498 60.1256 207.468 60.1442 207.434 60.1552C207.401 60.1662 207.365 60.1693 207.33 60.1642C207.159 60.1642 207.048 59.943 206.996 59.5006C206.843 58.3263 206.367 57.471 205.571 56.9347C204.775 56.3983 203.598 56.1299 202.041 56.1294C201.561 56.1294 200.739 56.155 199.574 56.2062V63.7378C201.46 63.7548 202.648 63.6229 203.137 63.3419C203.627 63.061 203.957 62.3335 204.128 61.1594C204.213 60.5295 204.342 60.2145 204.514 60.2144C204.668 60.2144 204.745 60.368 204.745 60.674C204.745 60.98 204.72 61.6105 204.668 62.5636C204.651 62.8873 204.643 63.3213 204.643 63.8656C204.643 65.3296 204.66 66.4359 204.694 67.1846C204.713 67.3114 204.721 67.4394 204.72 67.5675C204.72 67.772 204.642 67.8741 204.488 67.8738C204.442 67.8805 204.395 67.8732 204.354 67.8527C204.312 67.8321 204.278 67.7995 204.256 67.759C204.183 67.4869 204.131 67.2094 204.102 66.9292C203.93 65.7214 203.695 64.9683 203.394 64.6701C203.094 64.3719 202.404 64.2228 201.324 64.2228H199.575V72.8012H201.218C203.101 72.7672 204.248 72.7247 204.659 72.6735C205.191 72.5985 205.699 72.4068 206.148 72.1121C206.532 71.8271 206.837 71.4491 207.033 71.0139C207.276 70.3084 207.452 69.5821 207.56 68.8443C207.611 68.589 207.696 68.4613 207.816 68.4613C207.953 68.4618 208.022 68.59 208.022 68.846H208.022ZM231.597 55.9129C231.597 56.0248 231.485 56.0901 231.264 56.106C230.257 56.1574 229.652 56.2767 229.447 56.4638C229.26 56.4983 228.611 57.7713 227.502 60.283C227.263 60.8297 226.905 61.6156 226.427 62.6407C226.03 63.3963 225.687 64.179 225.4 64.9828C225.274 65.6447 225.223 66.3188 225.25 66.992V72.1365C225.238 72.26 225.268 72.3838 225.336 72.4882C225.403 72.5925 225.503 72.6715 225.62 72.7124C226.101 72.8371 226.596 72.8932 227.092 72.8791C227.468 72.8791 227.655 72.9594 227.656 73.12C227.656 73.2485 227.493 73.3128 227.168 73.313C227.099 73.313 226.902 73.3045 226.577 73.2875C226.184 73.2875 225.636 73.279 224.935 73.262L222.881 73.2361C222.829 73.2361 222.607 73.2447 222.213 73.262C221.734 73.279 221.307 73.2875 220.929 73.2875L219.312 73.313C219.038 73.313 218.901 73.2448 218.901 73.1083C218.902 72.9719 219.021 72.904 219.26 72.9046C220.471 72.8876 221.136 72.777 221.256 72.5729C221.376 72.4536 221.435 72.1817 221.435 71.7571V65.7147C220.96 64.4232 220.127 62.6727 218.936 60.4633C218.443 59.4267 217.746 58.1265 216.846 56.5629C216.607 56.2572 216.191 56.1043 215.596 56.1042H215.06C214.72 56.1042 214.55 56.0106 214.55 55.8235C214.55 55.6702 214.729 55.5935 215.088 55.5935C215.037 55.5935 215.111 55.6025 215.305 55.619C215.5 55.6356 215.83 55.645 216.291 55.645L219.312 55.6702H219.874C220.247 55.6143 220.624 55.5887 221.001 55.5935H223.304C223.645 55.5935 223.816 55.6617 223.816 55.798C223.816 55.9002 223.777 55.9601 223.701 55.9769C223.624 55.9937 223.321 56.0113 222.792 56.0283C221.853 56.062 221.384 56.2668 221.384 56.6425C221.387 56.929 221.448 57.212 221.564 57.4744C221.683 57.7562 222.084 58.5885 222.765 59.9712C223.361 61.1659 224.076 62.5654 224.911 64.1698C225.438 63.2327 226.185 61.6819 227.154 59.5174C227.899 57.8928 228.271 56.9353 228.272 56.6448C228.272 56.2689 228.024 56.0808 227.529 56.0807C226.778 56.0977 226.402 56.0207 226.403 55.8498C226.403 55.662 226.565 55.5764 226.889 55.5931L227.607 55.6315C228.085 55.6567 228.896 55.6695 230.038 55.6698H231.011C231.401 55.6711 231.596 55.7518 231.597 55.9118L231.597 55.9129Z" fill="white"/>
<path d="M130.737 16.7792C130.735 14.627 130.12 12.5198 128.964 10.7024C127.809 8.88498 126.16 7.4321 124.209 6.51264C123.289 4.56534 121.832 2.91918 120.01 1.76624C118.187 0.613288 116.073 0.00109863 113.915 0.00109863C111.757 0.00109863 109.643 0.613288 107.82 1.76624C105.998 2.91918 104.541 4.56534 103.621 6.51264C101.669 7.4304 100.019 8.88302 98.8626 10.701C97.7067 12.519 97.0929 14.6274 97.0929 16.7802C97.0929 18.9329 97.7067 21.0413 98.8626 22.8593C100.019 24.6773 101.669 26.1299 103.621 27.0477C104.541 28.995 105.998 30.6411 107.82 31.7941C109.643 32.947 111.757 33.5592 113.915 33.5592C116.073 33.5592 118.187 32.947 120.01 31.7941C121.832 30.6411 123.289 28.995 124.209 27.0477C126.16 26.1281 127.809 24.6749 128.965 22.8571C130.121 21.0393 130.735 18.9316 130.737 16.7792ZM124.284 11.3549C124.286 12.8825 123.946 14.3912 123.289 15.7713C122.147 14.1193 120.588 12.7966 118.771 11.9362C117.908 10.1232 116.582 8.56874 114.926 7.42902C116.253 6.80223 117.699 6.46442 119.168 6.43804C120.636 6.41167 122.093 6.69732 123.443 7.27603C123.999 8.56419 124.286 9.95226 124.284 11.3549ZM119.344 13.3966C120.723 14.2461 121.886 15.4042 122.739 16.7792C121.886 18.1542 120.723 19.3122 119.344 20.1617C120.032 17.9589 120.032 15.5994 119.344 13.3966ZM113.915 21.6975C112.509 21.6987 111.117 21.4129 109.826 20.8578C109.27 19.5694 108.984 18.1816 108.984 16.7792C108.984 15.3767 109.27 13.9889 109.826 12.7005C111.118 12.1465 112.509 11.8608 113.915 11.8608C115.321 11.8608 116.712 12.1465 118.004 12.7005C118.559 13.9889 118.846 15.3767 118.846 16.7792C118.846 18.1816 118.559 19.5694 118.004 20.8578C116.713 21.4129 115.321 21.6987 113.915 21.6975ZM117.306 22.1947C116.455 23.5705 115.293 24.7296 113.915 25.5804C112.536 24.7296 111.375 23.5704 110.524 22.1947C112.732 22.8809 115.098 22.8809 117.306 22.1947ZM110.524 11.3636C111.375 9.98789 112.536 8.82868 113.915 7.97769C115.293 8.82859 116.454 9.98781 117.306 11.3636C115.098 10.6774 112.732 10.6774 110.524 11.3636ZM113.915 1.01189C115.686 1.01291 117.427 1.46625 118.973 2.32873C120.518 3.1912 121.817 4.43408 122.744 5.93893C121.289 5.48634 119.758 5.32991 118.241 5.47891C116.725 5.62791 115.253 6.07931 113.915 6.80632C112.576 6.07931 111.105 5.62791 109.588 5.47891C108.072 5.32991 106.54 5.48634 105.085 5.93893C106.013 4.43409 107.311 3.19123 108.857 2.32875C110.403 1.46628 112.144 1.01293 113.915 1.01189ZM104.388 7.27603C105.737 6.69732 107.194 6.41166 108.663 6.43804C110.131 6.46442 111.577 6.80223 112.904 7.42902C111.248 8.56854 109.922 10.1231 109.06 11.9362C107.242 12.7965 105.683 14.1192 104.541 15.7713C103.913 14.4472 103.574 13.0049 103.547 11.5401C103.521 10.0754 103.807 8.62184 104.388 7.27603ZM108.485 20.1617C107.106 19.3121 105.944 18.154 105.091 16.7792C105.944 15.4043 107.106 14.2462 108.485 13.3966C107.797 15.5994 107.797 17.9589 108.485 20.1617ZM98.1076 16.7792C98.1086 15.0126 98.5631 13.2757 99.4279 11.7341C100.293 10.1924 101.539 8.89725 103.048 7.9721C102.594 9.42334 102.437 10.9507 102.586 12.4636C102.735 13.9765 103.188 15.4441 103.917 16.7792C103.188 18.1142 102.735 19.5817 102.586 21.0946C102.437 22.6074 102.594 24.1348 103.048 25.586C101.539 24.6609 100.293 23.3658 99.4278 21.8242C98.5631 20.2825 98.1086 18.5457 98.1076 16.7792ZM103.546 22.2034C103.545 20.6758 103.885 19.1671 104.541 17.787C105.684 19.439 107.242 20.7618 109.06 21.6221C109.922 23.4352 111.248 24.9896 112.905 26.1291C111.577 26.756 110.131 27.0939 108.663 27.1203C107.194 27.1466 105.737 26.8609 104.388 26.2821C103.831 24.994 103.545 23.606 103.546 22.2034H103.546ZM113.915 32.5462C112.144 32.5452 110.403 32.0919 108.857 31.2294C107.312 30.3669 106.013 29.124 105.086 27.6192C106.541 28.0717 108.072 28.2282 109.589 28.0792C111.105 27.9302 112.577 27.4788 113.915 26.7518C115.254 27.4788 116.725 27.9302 118.242 28.0792C119.759 28.2282 121.29 28.0718 122.745 27.6192C121.817 29.124 120.519 30.3669 118.973 31.2294C117.427 32.0919 115.686 32.5452 113.915 32.5462H113.915ZM123.442 26.2814C122.093 26.8602 120.636 27.146 119.168 27.1196C117.699 27.0932 116.253 26.7553 114.926 26.1284C116.582 24.9889 117.908 23.4344 118.77 21.6214C120.588 20.7611 122.147 19.4384 123.289 17.7863C123.917 19.1104 124.256 20.5527 124.283 22.0174C124.309 23.4821 124.023 24.9356 123.442 26.2814ZM124.783 25.5853C125.237 24.1341 125.393 22.6067 125.244 21.0939C125.095 19.5811 124.642 18.1136 123.913 16.7785C124.642 15.4434 125.095 13.9758 125.244 12.4629C125.393 10.9501 125.237 9.42269 124.783 7.97143C126.292 8.89567 127.539 10.1906 128.404 11.7324C129.269 13.2743 129.723 15.0116 129.723 16.7784C129.723 18.5452 129.269 20.2825 128.404 21.8243C127.539 23.3662 126.292 24.6611 124.783 25.5853ZM66.3993 92.1526C66.3993 92.231 66.3422 92.2757 66.2282 92.2868C65.6243 92.3096 65.2456 92.3767 65.0919 92.4881C64.9382 92.5995 64.7702 92.9191 64.5878 93.447C64.4966 93.6937 64.3599 94.0695 64.1776 94.5743C63.5735 96.2443 62.5995 99.0626 61.2555 103.029C61.0733 103.597 60.9423 103.881 60.8626 103.881C60.7599 103.881 60.6745 103.779 60.6063 103.574C60.4579 103.109 60.2698 102.58 60.0421 101.989C59.7004 101.069 59.239 99.8472 58.6581 98.3246C58.4074 97.6536 58.02 96.6593 57.496 95.3419C57.2109 94.6262 56.9261 93.8307 56.6416 92.9556C56.5994 92.747 56.4824 92.561 56.3125 92.4324C56.1427 92.3038 55.9316 92.2413 55.7189 92.2568H55.1549C55.0183 92.2568 54.9497 92.2085 54.9497 92.1116C54.9497 92.0148 55.1549 91.9669 55.565 91.9669H60.5209C60.7372 91.9669 60.8454 92.018 60.8456 92.1202C60.8456 92.2114 60.6462 92.2627 60.2475 92.274C59.5981 92.2854 59.2734 92.3876 59.2734 92.5807C59.2734 92.6035 59.3706 92.9049 59.5649 93.4848C60.435 96.0771 61.2023 98.1976 61.8668 99.8462C62.0148 99.4828 62.2882 98.7272 62.6869 97.5793C62.7893 97.2724 63.0285 96.579 63.4044 95.4992C63.9304 93.9549 64.1933 93.0139 64.1931 92.676C64.2054 92.5951 64.1854 92.5127 64.1375 92.4463C64.0896 92.3799 64.0176 92.3349 63.9368 92.3208C63.8685 92.3096 63.6069 92.2983 63.1519 92.2868C62.924 92.2868 62.81 92.2304 62.8102 92.1177C62.8102 92.0166 62.8899 91.966 63.0495 91.9658H66.1436C66.314 91.9663 66.3993 92.0285 66.3993 92.1526ZM80.3496 103.635C80.3496 103.731 80.2751 103.779 80.1274 103.779C80.0529 103.78 79.9786 103.774 79.9051 103.762C79.2216 103.728 78.6349 103.711 78.145 103.711C77.6324 103.711 76.8805 103.728 75.8893 103.762C75.5588 103.774 75.3138 103.779 75.1545 103.779C74.9836 103.779 74.8982 103.728 74.8982 103.626C74.8976 103.613 74.8995 103.601 74.9039 103.588C74.9083 103.576 74.9151 103.565 74.9238 103.556C74.9326 103.546 74.9431 103.538 74.9548 103.533C74.9665 103.528 74.9792 103.525 74.9921 103.524C75.0546 103.513 75.2739 103.501 75.6501 103.49C76.003 103.422 76.2081 103.317 76.2654 103.174C76.3226 103.032 76.3511 102.575 76.3506 101.802V92.9721C76.3391 92.7677 76.3334 92.6708 76.3336 92.6813C76.3336 92.398 76.0488 92.2564 75.4792 92.2564C75.16 92.2564 75.0005 92.2166 75.0006 92.1369C75.0006 92.0575 75.0231 92.0119 75.069 92.0005C75.2166 91.984 75.3651 91.9784 75.5135 91.9835H80.0076C80.1556 91.9835 80.2297 92.0264 80.2298 92.1123C80.2331 92.1382 80.2272 92.1644 80.2132 92.1865C80.1992 92.2085 80.1778 92.2249 80.1529 92.2329C79.9806 92.2603 79.8063 92.2738 79.6318 92.2734C79.2785 92.2959 79.0617 92.3696 78.9815 92.4946L78.9301 92.8178V102.434C78.9301 102.921 78.9842 103.211 79.0925 103.301C79.2007 103.392 79.5681 103.455 80.1946 103.488C80.2991 103.501 80.3505 103.549 80.3505 103.634L80.3496 103.635ZM100.153 100.882C100.153 101.098 100.147 101.28 100.135 101.427C100.094 101.829 100.077 102.234 100.084 102.638L100.101 103.848C98.643 103.791 96.0057 103.762 92.1893 103.762H91.4717C90.9703 103.762 90.7197 103.714 90.7198 103.618C90.72 103.521 90.7997 103.473 90.9591 103.473C91.5287 103.461 91.8932 103.382 92.0527 103.234C92.1552 103.144 92.2064 102.872 92.2066 102.418V93.1933C92.2326 92.9498 92.1969 92.7037 92.1028 92.4776C92.0233 92.3892 91.9235 92.3213 91.8119 92.2798C91.7004 92.2383 91.5804 92.2243 91.4623 92.2391H91.0297C90.9028 92.2391 90.8394 92.1965 90.8394 92.1112C90.8394 92.0259 90.9191 91.9833 91.0786 91.9835H95.8806C95.9943 91.9835 96.0515 92.0282 96.0515 92.1197C96.0515 92.2218 95.9034 92.2731 95.607 92.2734C95.1855 92.2734 94.9377 92.3244 94.8639 92.4266C94.79 92.5287 94.7527 92.9776 94.7518 93.7731V97.8298C94.7518 98.6595 94.7746 100.517 94.8202 103.403C95.0365 103.415 95.2814 103.42 95.555 103.42C96.3833 103.444 97.2121 103.399 98.0327 103.284C98.3494 103.239 98.6498 103.115 98.9065 102.925C99.1632 102.734 99.3681 102.483 99.5024 102.193C99.6832 101.738 99.8094 101.263 99.8783 100.778C99.9126 100.597 99.9637 100.506 100.032 100.506C100.113 100.506 100.154 100.631 100.154 100.881L100.153 100.882ZM118.335 100.882C118.335 101.098 118.329 101.28 118.318 101.427C118.276 101.829 118.259 102.234 118.266 102.638L118.283 103.848C116.825 103.791 114.188 103.762 110.371 103.762H109.654C109.152 103.762 108.902 103.714 108.902 103.618C108.902 103.521 108.982 103.473 109.141 103.473C109.711 103.461 110.075 103.382 110.235 103.234C110.337 103.144 110.389 102.872 110.389 102.418V93.1933C110.415 92.9498 110.379 92.7037 110.285 92.4776C110.205 92.3892 110.106 92.3213 109.994 92.2798C109.882 92.2383 109.763 92.2243 109.644 92.2391H109.212C109.085 92.2391 109.021 92.1965 109.021 92.1112C109.021 92.0259 109.101 91.9833 109.261 91.9835H114.063C114.176 91.9835 114.234 92.0282 114.234 92.1197C114.234 92.2218 114.085 92.2731 113.789 92.2734C113.368 92.2734 113.12 92.3244 113.046 92.4266C112.972 92.5287 112.935 92.9776 112.934 93.7731V97.8298C112.934 98.6595 112.956 100.517 113.001 103.403C113.218 103.415 113.463 103.42 113.736 103.42C114.564 103.444 115.393 103.399 116.214 103.284C116.53 103.239 116.831 103.115 117.087 102.925C117.344 102.734 117.549 102.483 117.683 102.193C117.864 101.738 117.99 101.263 118.059 100.778C118.093 100.597 118.145 100.506 118.213 100.506C118.296 100.506 118.336 100.631 118.336 100.881L118.335 100.882ZM136.912 103.439C136.354 103.45 136.001 103.41 135.853 103.319C135.659 103.206 135.465 102.888 135.272 102.365C135.044 101.751 134.816 101.149 134.588 100.558C132.811 95.9333 131.808 93.2856 131.581 92.6151C131.398 92.0932 131.273 91.8323 131.205 91.8323C131.137 91.8323 131.04 92.0255 130.914 92.4118C130.732 92.9462 130.59 93.3383 130.488 93.5879L128.42 99.2638C128.01 100.378 127.697 101.219 127.481 101.786C127.196 102.594 126.991 103.071 126.866 103.218C126.74 103.365 126.45 103.45 125.994 103.473C125.641 103.496 125.464 103.542 125.464 103.61C125.464 103.723 125.544 103.78 125.704 103.78H128.745C128.95 103.78 129.053 103.732 129.053 103.635C129.053 103.55 128.973 103.501 128.814 103.49C128.312 103.456 128.033 103.434 127.976 103.423C127.726 103.367 127.6 103.242 127.6 103.048C127.608 102.908 127.636 102.77 127.686 102.639L128.062 101.531C128.346 100.736 128.539 100.225 128.643 99.9972C129.178 99.9747 129.685 99.969 130.164 99.9802H131.804C132.032 100.651 132.18 101.111 132.248 101.361L132.607 102.469C132.693 102.702 132.762 102.941 132.812 103.184C132.812 103.298 132.721 103.366 132.539 103.389C132.421 103.416 132.301 103.427 132.18 103.423C131.531 103.435 131.206 103.497 131.206 103.611C131.206 103.724 131.36 103.781 131.668 103.781C131.873 103.781 132.26 103.769 132.829 103.747C133.113 103.736 133.444 103.73 133.821 103.73C134.139 103.73 134.721 103.741 135.564 103.764C135.985 103.775 136.242 103.781 136.333 103.781C136.552 103.787 136.772 103.779 136.991 103.755C137.029 103.751 137.064 103.731 137.088 103.701C137.112 103.67 137.123 103.632 137.119 103.593C137.118 103.488 137.05 103.437 136.913 103.437L136.912 103.439ZM130.47 99.6035H128.762C128.909 99.2175 129.148 98.5417 129.477 97.5762C129.772 96.7132 130.022 96.0375 130.226 95.5488L130.34 95.8514C130.438 96.1373 130.514 96.3545 130.569 96.503C130.775 97.0368 131.107 97.9623 131.566 99.2794C131.633 99.4618 131.673 99.5698 131.684 99.6035H130.47ZM156.472 100.106C156.472 100.215 156.258 100.263 155.83 100.251C155.323 100.24 155.053 100.353 155.019 100.591C154.997 100.726 154.986 101.173 154.986 101.931V102.627C153.629 103.543 152.336 104.001 151.106 104.001C150.347 104.019 149.593 103.876 148.894 103.582C148.194 103.288 147.565 102.85 147.047 102.297C145.959 101.16 145.415 99.7458 145.415 98.0526C145.415 96.2571 145.973 94.7628 147.09 93.5698C147.621 92.9888 148.272 92.5284 148.997 92.2197C149.722 91.911 150.505 91.7612 151.294 91.7804C152.04 91.7925 152.775 91.967 153.447 92.2917C153.622 92.3866 153.813 92.4501 154.01 92.4791C154.192 92.4791 154.346 92.3428 154.472 92.0701C154.528 91.9336 154.591 91.8655 154.66 91.8656C154.739 91.8656 154.779 91.9226 154.779 92.0358C154.779 92.0588 154.762 92.286 154.728 92.7176C154.717 92.8542 154.711 93.178 154.711 93.6892C154.711 94.0757 154.734 94.6666 154.779 95.462C154.779 95.6781 154.722 95.7857 154.608 95.7857C154.449 95.7857 154.34 95.5584 154.284 95.1039C154.147 94.1049 153.817 93.3151 153.293 92.7346C153.083 92.5195 152.83 92.3519 152.55 92.2431C152.27 92.1343 151.969 92.0869 151.669 92.104C149.516 92.104 148.44 94.0131 148.44 97.8312C148.44 100.206 148.795 101.86 149.504 102.791C149.706 103.073 149.974 103.302 150.285 103.456C150.596 103.611 150.941 103.687 151.288 103.677C152.226 103.677 152.695 103.087 152.695 101.905C152.695 101.019 152.658 100.522 152.583 100.413C152.508 100.305 152.315 100.251 152.004 100.252H151.572C151.329 100.252 151.208 100.2 151.208 100.098C151.208 99.9958 151.306 99.9447 151.5 99.9448C151.898 99.9448 152.4 99.9505 153.004 99.9618H156.268C156.405 99.9605 156.473 100.009 156.473 100.105L156.472 100.106ZM174.535 100.78C174.535 100.803 174.529 101.331 174.518 102.365C174.506 102.91 174.498 103.302 174.492 103.541C174.486 103.78 174.483 103.893 174.483 103.882C171.476 103.745 168.844 103.706 166.588 103.762H165.153C164.948 103.762 164.846 103.72 164.846 103.634C164.846 103.57 164.871 103.532 164.923 103.522C164.974 103.511 165.148 103.495 165.444 103.473C165.979 103.439 166.27 103.286 166.315 103.014C166.339 102.851 166.351 102.686 166.349 102.52V93.8912C166.349 93.2105 166.344 92.8361 166.332 92.7679C166.335 92.6965 166.322 92.6254 166.292 92.5604C166.262 92.4954 166.218 92.4383 166.162 92.3937C165.963 92.3069 165.745 92.2718 165.529 92.2915C165.176 92.2915 164.999 92.2405 164.999 92.1385C164.999 92.0252 165.156 91.9684 165.47 91.9683C165.784 91.9681 166.22 91.9625 166.778 91.9513C168.873 91.9065 170.588 91.8951 171.921 91.9171H173.083C173.333 91.9171 173.641 91.9001 174.006 91.8661L174.16 93.7236C174.217 94.3147 174.245 94.6784 174.245 94.8147C174.248 94.8379 174.246 94.8615 174.239 94.8838C174.231 94.906 174.219 94.9262 174.202 94.9427C174.186 94.9592 174.165 94.9717 174.143 94.9791C174.121 94.9864 174.097 94.9885 174.074 94.9852C173.959 94.9852 173.885 94.8375 173.851 94.5421C173.748 93.7579 173.431 93.1868 172.899 92.829C172.368 92.4711 171.582 92.2922 170.542 92.2922C170.222 92.2922 169.674 92.3092 168.896 92.3434V97.3715C170.156 97.3828 170.949 97.2947 171.275 97.1071C171.601 96.9195 171.822 96.4338 171.936 95.6499C171.993 95.2297 172.079 95.0195 172.194 95.0192C172.297 95.0192 172.348 95.1214 172.348 95.326C172.349 95.5306 172.332 95.951 172.297 96.5873C172.286 96.8034 172.28 97.0932 172.28 97.4567C172.28 98.4339 172.292 99.1724 172.314 99.6724C172.327 99.7571 172.332 99.8427 172.331 99.9283C172.331 100.065 172.28 100.133 172.177 100.133C172.146 100.137 172.115 100.132 172.087 100.119C172.06 100.105 172.037 100.083 172.022 100.056C171.973 99.8744 171.939 99.6891 171.919 99.502C171.805 98.6951 171.647 98.1923 171.447 97.9935C171.246 97.7948 170.785 97.6953 170.064 97.6952H168.896V103.422H169.993C171.25 103.4 172.016 103.371 172.29 103.337C172.646 103.287 172.985 103.159 173.285 102.962C173.541 102.772 173.744 102.52 173.876 102.229C174.037 101.758 174.155 101.273 174.227 100.78C174.261 100.61 174.318 100.525 174.399 100.525C174.49 100.523 174.536 100.607 174.536 100.778L174.535 100.78Z" fill="#CCB066"/>
</g>
<defs>
<clipPath id="clip0">
<path d="M0 0H231.597V104H0V0Z" fill="white"/>
</clipPath>
</defs>
</svg>
